<svg xmlns="http://www.w3.org/2000/svg" viewBox="-52.81 53.42 680.63 428.32"> <g transform="rotate(332 287 237.5)"><svg xmlns="http://www.w3.org/2000/svg" xmlns:xlink="http://www.w3.org/1999/xlink" version="1.1" id="Livello_2" x="172" y="123" viewBox="141.99000549316406 277.61004638671875 316.40997314453125 316.38995361328125" xml:space="preserve" height="229" width="230" preserveAspectRatio="xMinYMin" enable-background="new 0 0 595.28 841.89" style="overflow: visible;"><path class="st0" d="M323.02,363.87c-19.04,0.26-40.86,5.61-65.59,18.66c12.12,12.52,24.5,30.79,24.5,53.26   c0,21.98-13.02,39.97-26.03,52.46c26.11,14.05,49,19.52,68.83,19.48c12.93-16.82,27.79-42.53,27.79-71.94   C352.51,405.08,336.31,379.61,323.02,363.87z" style="fill: #69F779;"></path><path class="st1" d="M281.93,435.8c0-22.47-12.39-40.74-24.5-53.26c-9.29,4.9-18.98,10.87-29.1,18.1   c-13.3,9.49-27.31,21.11-42.07,35.16c25.37,24.17,48.56,41.11,69.65,52.46C268.91,475.77,281.93,457.78,281.93,435.8z" style="fill: #98F99F;"></path><path class="st2" d="M363.86,371.8c-11.85-5.03-25.45-8.13-40.85-7.92c13.29,15.73,29.5,41.21,29.5,71.92   c0,29.41-14.86,55.12-27.79,71.94c14.7-0.03,27.72-3.09,39.14-7.94C420.05,475.95,420.05,395.65,363.86,371.8z" style="fill: #49DB64;"></path><path class="st3" d="M141.99,435.8c0,87.23,70.97,158.2,158.2,158.2c34.9,0,67.98-11.14,95.69-32.21  c26.81-20.39,46.75-49.32,56.17-81.48c1.06-3.64-1.02-7.46-4.66-8.52c-3.64-1.07-7.46,1.02-8.52,4.66  c-8.59,29.36-26.81,55.78-51.3,74.4c-25.29,19.24-55.5,29.4-87.37,29.4c-79.66,0-144.46-64.81-144.46-144.46  c0-79.66,64.81-144.46,144.46-144.46c77.35,0,140.7,61.11,144.3,137.59h-31.84c-2.4-28.29-19.57-52.22-46.03-63.45  c-41.94-17.8-89.79-7.86-142.22,29.57c-13.91,9.93-28.32,21.97-42.82,35.78c-0.02,0.02-0.03,0.04-0.05,0.06  c-0.22,0.21-0.4,0.45-0.59,0.69c-0.09,0.12-0.2,0.22-0.28,0.35c-0.22,0.32-0.4,0.66-0.56,1.01c-0.03,0.06-0.07,0.11-0.09,0.17  c-0.35,0.83-0.55,1.74-0.55,2.7s0.2,1.87,0.55,2.7c0.03,0.06,0.07,0.11,0.09,0.17c0.16,0.35,0.34,0.69,0.56,1.01  c0.08,0.12,0.19,0.23,0.28,0.35c0.19,0.24,0.37,0.48,0.59,0.69c0.02,0.02,0.03,0.04,0.05,0.06c37.52,35.73,73.5,58.77,106.93,68.47  c27.89,8.09,54.17,7.04,78.1-3.12c26.46-11.23,43.63-35.17,46.03-63.45h38.88c3.79,0,6.87-3.08,6.87-6.87  c0-87.23-70.97-158.2-158.2-158.2S141.99,348.56,141.99,435.8z M267.76,385.02c16.7-8,32.71-12.64,47.96-13.93  c0.03,0.02,0.05,0.04,0.07,0.06c1.19,0.82,27.68,19.56,30.59,57.78H288.9C286.83,406.33,274.94,391.84,267.76,385.02z   M275.08,442.67c-2.68,23.59-18.5,35.66-20.37,37c-16.36-9.32-33.3-21.67-50.71-37H275.08z M398.85,428.93h-38.7  c-1.8-27.41-14.08-46.46-23.95-57.52c8.63,1.06,16.98,3.29,25.04,6.71C382.54,387.16,396.49,406.26,398.85,428.93z M254.67,391.9  c1.64,1.17,17.71,13.24,20.41,37.03h-71.09c9.62-8.48,19.13-16.09,28.39-22.7C239.93,400.84,247.36,396.06,254.67,391.9z   M267.8,486.54c7.18-6.83,19.04-21.32,21.1-43.87h57.48c-2.91,38.18-29.35,56.92-30.59,57.78c-0.01,0.01-0.02,0.02-0.03,0.02  c-7.63-0.64-15.45-2.11-23.43-4.43C284.34,493.72,276.15,490.53,267.8,486.54z M361.25,493.47c-8.02,3.4-16.37,5.62-25,6.67  c9.86-11.07,22.11-30.1,23.91-57.47h38.7C396.5,465.34,382.54,484.43,361.25,493.47z" style="fill: #07501f; fill-opacity: 1;"></path></svg></g> <svg y="374" viewBox="4.510000228881836 9.40999984741211 540.6300048828125 37.529998779296875" x="17" width="540" height="37" style="overflow: visible;"><g fill="#07501f" fill-opacity="1" style=""><path d="M10.75 41.23L29.71 41.23L29.71 46.46L4.51 46.46L4.51 12.86L29.04 12.86L29.04 18.10L10.75 18.10L10.75 26.83L26.98 26.83L26.98 31.97L10.75 31.97L10.75 41.23ZM50.64 20.54Q55.49 20.54 58.42 23.38Q61.34 26.21 61.34 31.78L61.34 31.78L61.34 46.46L55.34 46.46L55.34 32.54Q55.34 29.18 53.76 27.48Q52.18 25.78 49.25 25.78L49.25 25.78Q45.94 25.78 44.02 27.77Q42.10 29.76 42.10 33.50L42.10 33.50L42.10 46.46L36.10 46.46L36.10 20.83L41.81 20.83L41.81 24.14Q43.30 22.37 45.55 21.46Q47.81 20.54 50.64 20.54L50.64 20.54ZM86.74 20.83L92.50 20.83L81.50 46.46L75.31 46.46L64.32 20.83L70.56 20.83L78.53 39.84L86.74 20.83ZM96.24 46.46L96.24 20.83L102.24 20.83L102.24 46.46L96.24 46.46ZM99.26 16.61Q97.63 16.61 96.53 15.58Q95.42 14.54 95.42 13.01L95.42 13.01Q95.42 11.47 96.53 10.44Q97.63 9.41 99.26 9.41L99.26 9.41Q100.90 9.41 102 10.39Q103.10 11.38 103.10 12.86L103.10 12.86Q103.10 14.45 102.02 15.53Q100.94 16.61 99.26 16.61L99.26 16.61ZM115.82 24.58Q118.42 20.54 124.94 20.54L124.94 20.54L124.94 26.26Q124.18 26.11 123.55 26.11L123.55 26.11Q120.05 26.11 118.08 28.15Q116.11 30.19 116.11 34.03L116.11 34.03L116.11 46.46L110.11 46.46L110.11 20.83L115.82 20.83L115.82 24.58ZM141.31 46.80Q137.42 46.80 134.30 45.12Q131.18 43.44 129.43 40.44Q127.68 37.44 127.68 33.65L127.68 33.65Q127.68 29.86 129.43 26.88Q131.18 23.90 134.30 22.22Q137.42 20.54 141.31 20.54L141.31 20.54Q145.25 20.54 148.37 22.22Q151.49 23.90 153.24 26.88Q154.99 29.86 154.99 33.65L154.99 33.65Q154.99 37.44 153.24 40.44Q151.49 43.44 148.37 45.12Q145.25 46.80 141.31 46.80L141.31 46.80ZM141.31 41.66Q144.62 41.66 146.78 39.46Q148.94 37.25 148.94 33.65L148.94 33.65Q148.94 30.05 146.78 27.84Q144.62 25.63 141.31 25.63L141.31 25.63Q138 25.63 135.86 27.84Q133.73 30.05 133.73 33.65L133.73 33.65Q133.73 37.25 135.86 39.46Q138 41.66 141.31 41.66L141.31 41.66ZM175.30 20.54Q180.14 20.54 183.07 23.38Q186 26.21 186 31.78L186 31.78L186 46.46L180 46.46L180 32.54Q180 29.18 178.42 27.48Q176.83 25.78 173.90 25.78L173.90 25.78Q170.59 25.78 168.67 27.77Q166.75 29.76 166.75 33.50L166.75 33.50L166.75 46.46L160.75 46.46L160.75 20.83L166.46 20.83L166.46 24.14Q167.95 22.37 170.21 21.46Q172.46 20.54 175.30 20.54L175.30 20.54ZM225.98 20.54Q230.83 20.54 233.66 23.35Q236.50 26.16 236.50 31.78L236.50 31.78L236.50 46.46L230.50 46.46L230.50 32.54Q230.50 29.18 229.01 27.48Q227.52 25.78 224.74 25.78L224.74 25.78Q221.71 25.78 219.89 27.77Q218.06 29.76 218.06 33.46L218.06 33.46L218.06 46.46L212.06 46.46L212.06 32.54Q212.06 29.18 210.58 27.48Q209.09 25.78 206.30 25.78L206.30 25.78Q203.23 25.78 201.43 27.74Q199.63 29.71 199.63 33.46L199.63 33.46L199.63 46.46L193.63 46.46L193.63 20.83L199.34 20.83L199.34 24.10Q200.78 22.37 202.94 21.46Q205.10 20.54 207.74 20.54L207.74 20.54Q210.62 20.54 212.86 21.62Q215.09 22.70 216.38 24.82L216.38 24.82Q217.97 22.80 220.46 21.67Q222.96 20.54 225.98 20.54L225.98 20.54ZM268.51 33.79Q268.51 34.42 268.42 35.57L268.42 35.57L248.30 35.57Q248.83 38.40 251.06 40.06Q253.30 41.71 256.61 41.71L256.61 41.71Q260.83 41.71 263.57 38.93L263.57 38.93L266.78 42.62Q265.06 44.69 262.42 45.74Q259.78 46.80 256.46 46.80L256.46 46.80Q252.24 46.80 249.02 45.12Q245.81 43.44 244.06 40.44Q242.30 37.44 242.30 33.65L242.30 33.65Q242.30 29.90 244.01 26.90Q245.71 23.90 248.74 22.22Q251.76 20.54 255.55 20.54L255.55 20.54Q259.30 20.54 262.25 22.20Q265.20 23.86 266.86 26.86Q268.51 29.86 268.51 33.79L268.51 33.79ZM255.55 25.34Q252.67 25.34 250.68 27.05Q248.69 28.75 248.26 31.58L248.26 31.58L262.80 31.58Q262.42 28.80 260.45 27.07Q258.48 25.34 255.55 25.34L255.55 25.34ZM288.82 20.54Q293.66 20.54 296.59 23.38Q299.52 26.21 299.52 31.78L299.52 31.78L299.52 46.46L293.52 46.46L293.52 32.54Q293.52 29.18 291.94 27.48Q290.35 25.78 287.42 25.78L287.42 25.78Q284.11 25.78 282.19 27.77Q280.27 29.76 280.27 33.50L280.27 33.50L280.27 46.46L274.27 46.46L274.27 20.83L279.98 20.83L279.98 24.14Q281.47 22.37 283.73 21.46Q285.98 20.54 288.82 20.54L288.82 20.54ZM320.88 40.80L322.56 45.07Q321.50 45.94 319.99 46.37Q318.48 46.80 316.80 46.80L316.80 46.80Q312.58 46.80 310.27 44.59Q307.97 42.38 307.97 38.16L307.97 38.16L307.97 25.82L303.74 25.82L303.74 21.02L307.97 21.02L307.97 15.17L313.97 15.17L313.97 21.02L320.83 21.02L320.83 25.82L313.97 25.82L313.97 38.02Q313.97 39.89 314.88 40.87Q315.79 41.86 317.52 41.86L317.52 41.86Q319.54 41.86 320.88 40.80L320.88 40.80ZM356.88 46.94Q351.79 46.94 347.69 44.71Q343.58 42.48 341.26 38.54Q338.93 34.61 338.93 29.66L338.93 29.66Q338.93 24.72 341.28 20.78Q343.63 16.85 347.74 14.62Q351.84 12.38 356.93 12.38L356.93 12.38Q361.06 12.38 364.46 13.82Q367.87 15.26 370.22 18.00L370.22 18.00L366.19 21.79Q362.54 17.86 357.22 17.86L357.22 17.86Q353.76 17.86 351.02 19.37Q348.29 20.88 346.75 23.57Q345.22 26.26 345.22 29.66L345.22 29.66Q345.22 33.07 346.75 35.76Q348.29 38.45 351.02 39.96Q353.76 41.47 357.22 41.47L357.22 41.47Q362.54 41.47 366.19 37.49L366.19 37.49L370.22 41.33Q367.87 44.06 364.44 45.50Q361.01 46.94 356.88 46.94L356.88 46.94ZM386.21 46.80Q382.32 46.80 379.20 45.12Q376.08 43.44 374.33 40.44Q372.58 37.44 372.58 33.65L372.58 33.65Q372.58 29.86 374.33 26.88Q376.08 23.90 379.20 22.22Q382.32 20.54 386.21 20.54L386.21 20.54Q390.14 20.54 393.26 22.22Q396.38 23.90 398.14 26.88Q399.89 29.86 399.89 33.65L399.89 33.65Q399.89 37.44 398.14 40.44Q396.38 43.44 393.26 45.12Q390.14 46.80 386.21 46.80L386.21 46.80ZM386.21 41.66Q389.52 41.66 391.68 39.46Q393.84 37.25 393.84 33.65L393.84 33.65Q393.84 30.05 391.68 27.84Q389.52 25.63 386.21 25.63L386.21 25.63Q382.90 25.63 380.76 27.84Q378.62 30.05 378.62 33.65L378.62 33.65Q378.62 37.25 380.76 39.46Q382.90 41.66 386.21 41.66L386.21 41.66ZM420.19 20.54Q425.04 20.54 427.97 23.38Q430.90 26.21 430.90 31.78L430.90 31.78L430.90 46.46L424.90 46.46L424.90 32.54Q424.90 29.18 423.31 27.48Q421.73 25.78 418.80 25.78L418.80 25.78Q415.49 25.78 413.57 27.77Q411.65 29.76 411.65 33.50L411.65 33.50L411.65 46.46L405.65 46.46L405.65 20.83L411.36 20.83L411.36 24.14Q412.85 22.37 415.10 21.46Q417.36 20.54 420.19 20.54L420.19 20.54ZM453.07 20.54Q457.92 20.54 460.85 23.38Q463.78 26.21 463.78 31.78L463.78 31.78L463.78 46.46L457.78 46.46L457.78 32.54Q457.78 29.18 456.19 27.48Q454.61 25.78 451.68 25.78L451.68 25.78Q448.37 25.78 446.45 27.77Q444.53 29.76 444.53 33.50L444.53 33.50L444.53 46.46L438.53 46.46L438.53 20.83L444.24 20.83L444.24 24.14Q445.73 22.37 447.98 21.46Q450.24 20.54 453.07 20.54L453.07 20.54ZM495.74 33.79Q495.74 34.42 495.65 35.57L495.65 35.57L475.54 35.57Q476.06 38.40 478.30 40.06Q480.53 41.71 483.84 41.71L483.84 41.71Q488.06 41.71 490.80 38.93L490.80 38.93L494.02 42.62Q492.29 44.69 489.65 45.74Q487.01 46.80 483.70 46.80L483.70 46.80Q479.47 46.80 476.26 45.12Q473.04 43.44 471.29 40.44Q469.54 37.44 469.54 33.65L469.54 33.65Q469.54 29.90 471.24 26.90Q472.94 23.90 475.97 22.22Q478.99 20.54 482.78 20.54L482.78 20.54Q486.53 20.54 489.48 22.20Q492.43 23.86 494.09 26.86Q495.74 29.86 495.74 33.79L495.74 33.79ZM482.78 25.34Q479.90 25.34 477.91 27.05Q475.92 28.75 475.49 31.58L475.49 31.58L490.03 31.58Q489.65 28.80 487.68 27.07Q485.71 25.34 482.78 25.34L482.78 25.34ZM513.26 46.80Q509.28 46.80 506.11 45.12Q502.94 43.44 501.17 40.44Q499.39 37.44 499.39 33.65L499.39 33.65Q499.39 29.86 501.17 26.88Q502.94 23.90 506.09 22.22Q509.23 20.54 513.26 20.54L513.26 20.54Q517.06 20.54 519.91 22.08Q522.77 23.62 524.21 26.50L524.21 26.50L519.60 29.18Q518.50 27.41 516.84 26.52Q515.18 25.63 513.22 25.63L513.22 25.63Q509.86 25.63 507.65 27.82Q505.44 30 505.44 33.65L505.44 33.65Q505.44 37.30 507.62 39.48Q509.81 41.66 513.22 41.66L513.22 41.66Q515.18 41.66 516.84 40.78Q518.50 39.89 519.60 38.11L519.60 38.11L524.21 40.80Q522.72 43.68 519.86 45.24Q517.01 46.80 513.26 46.80L513.26 46.80ZM543.46 40.80L545.14 45.07Q544.08 45.94 542.57 46.37Q541.06 46.80 539.38 46.80L539.38 46.80Q535.15 46.80 532.85 44.59Q530.54 42.38 530.54 38.16L530.54 38.16L530.54 25.82L526.32 25.82L526.32 21.02L530.54 21.02L530.54 15.17L536.54 15.17L536.54 21.02L543.41 21.02L543.41 25.82L536.54 25.82L536.54 38.02Q536.54 39.89 537.46 40.87Q538.37 41.86 540.10 41.86L540.10 41.86Q542.11 41.86 543.46 40.80L543.46 40.80Z" transform="translate(0, 0)"></path></g></svg></svg>