<svg height="100%" width="100%" id="bg-svg" viewBox="0 0 1440 600" xmlns="http://www.w3.org/2000/svg" class="transition duration-300 ease-in-out delay-150"><defs><linearGradient id="gradient"><stop offset="5%" stop-color="#002bdc66"></stop><stop offset="95%" stop-color="#32ded466"></stop></linearGradient></defs><path d="M 0,600 C 0,600 0,150 0,150 C 76.98564593301435,157.2535885167464 153.9712918660287,164.5071770334928 250,167 C 346.0287081339713,169.4928229665072 461.1004784688996,167.22488038277513 562,159 C 662.8995215311004,150.77511961722487 749.6267942583733,136.59330143540672 840,146 C 930.3732057416267,155.40669856459328 1024.3923444976076,188.4019138755981 1125,193 C 1225.6076555023924,197.5980861244019 1332.8038277511962,173.79904306220095 1440,150 C 1440,150 1440,600 1440,600 Z" stroke="none" stroke-width="0" fill="url(#gradient)" class="transition-all duration-300 ease-in-out delay-150"></path><defs><linearGradient id="gradient"><stop offset="5%" stop-color="#002bdc88"></stop><stop offset="95%" stop-color="#32ded488"></stop></linearGradient></defs><path d="M 0,600 C 0,600 0,300 0,300 C 115.54066985645932,289.18660287081343 231.08133971291863,278.3732057416268 330,262 C 428.91866028708137,245.6267942583732 511.2153110047848,223.6937799043062 590,249 C 668.7846889952152,274.3062200956938 744.0574162679424,346.8516746411483 850,354 C 955.9425837320576,361.1483253588517 1092.555023923445,302.8995215311005 1196,283 C 1299.444976076555,263.1004784688995 1369.7224880382773,281.55023923444975 1440,300 C 1440,300 1440,600 1440,600 Z" stroke="none" stroke-width="0" fill="url(#gradient)" class="transition-all duration-300 ease-in-out delay-150"></path><defs><linearGradient id="gradient"><stop offset="5%" stop-color="#002bdcff"></stop><stop offset="95%" stop-color="#32ded4ff"></stop></linearGradient></defs><path d="M 0,600 C 0,600 0,450 0,450 C 64.66985645933013,425.95215311004785 129.33971291866027,401.9043062200957 245,418 C 360.66028708133973,434.0956937799043 527.3110047846891,490.33492822966514 629,503 C 730.6889952153109,515.6650717703349 767.4162679425837,484.755980861244 850,482 C 932.5837320574163,479.244019138756 1061.023923444976,504.64114832535887 1167,504 C 1272.976076555024,503.35885167464113 1356.488038277512,476.67942583732054 1440,450 C 1440,450 1440,600 1440,600 Z" stroke="none" stroke-width="0" fill="url(#gradient)" class="transition-all duration-300 ease-in-out delay-150"></path></svg>